<mxfile host="app.diagrams.net" modified="2024-04-27T00:25:32.848Z" agent="Mozilla/5.0 (Windows NT 10.0; Win64; x64) AppleWebKit/537.36 (KHTML, like Gecko) Chrome/124.0.0.0 Safari/537.36" etag="ETWYeQaIDhggxGFA8xU9" version="24.3.0" type="github">
  <diagram id="R2lEEEUBdFMjLlhIrx00" name="Page-1">
    <mxGraphModel dx="1050" dy="530" grid="1" gridSize="10" guides="1" tooltips="1" connect="1" arrows="1" fold="1" page="1" pageScale="1" pageWidth="850" pageHeight="1100" math="0" shadow="0" extFonts="Permanent Marker^https://fonts.googleapis.com/css?family=Permanent+Marker">
      <root>
        <mxCell id="0" />
        <mxCell id="1" parent="0" />
        <mxCell id="H4-Wv3msvxt6lHc-jZ4H-15" value="actores" style="swimlane;fontStyle=0;childLayout=stackLayout;horizontal=1;startSize=26;horizontalStack=0;resizeParent=1;resizeParentMax=0;resizeLast=0;collapsible=1;marginBottom=0;align=center;fontSize=14;" vertex="1" parent="1">
          <mxGeometry y="50" width="160" height="86" as="geometry" />
        </mxCell>
        <mxCell id="H4-Wv3msvxt6lHc-jZ4H-16" value="actor_id [PK]" style="text;strokeColor=none;fillColor=none;spacingLeft=4;spacingRight=4;overflow=hidden;rotatable=0;points=[[0,0.5],[1,0.5]];portConstraint=eastwest;fontSize=12;whiteSpace=wrap;html=1;" vertex="1" parent="H4-Wv3msvxt6lHc-jZ4H-15">
          <mxGeometry y="26" width="160" height="30" as="geometry" />
        </mxCell>
        <mxCell id="H4-Wv3msvxt6lHc-jZ4H-17" value="nombre" style="text;strokeColor=none;fillColor=none;spacingLeft=4;spacingRight=4;overflow=hidden;rotatable=0;points=[[0,0.5],[1,0.5]];portConstraint=eastwest;fontSize=12;whiteSpace=wrap;html=1;" vertex="1" parent="H4-Wv3msvxt6lHc-jZ4H-15">
          <mxGeometry y="56" width="160" height="30" as="geometry" />
        </mxCell>
        <mxCell id="H4-Wv3msvxt6lHc-jZ4H-18" value="participacion" style="swimlane;fontStyle=0;childLayout=stackLayout;horizontal=1;startSize=26;horizontalStack=0;resizeParent=1;resizeParentMax=0;resizeLast=0;collapsible=1;marginBottom=0;align=center;fontSize=14;" vertex="1" parent="1">
          <mxGeometry x="355" y="50" width="160" height="86" as="geometry" />
        </mxCell>
        <mxCell id="H4-Wv3msvxt6lHc-jZ4H-19" value="actor_id [FK]" style="text;strokeColor=none;fillColor=none;spacingLeft=4;spacingRight=4;overflow=hidden;rotatable=0;points=[[0,0.5],[1,0.5]];portConstraint=eastwest;fontSize=12;whiteSpace=wrap;html=1;" vertex="1" parent="H4-Wv3msvxt6lHc-jZ4H-18">
          <mxGeometry y="26" width="160" height="30" as="geometry" />
        </mxCell>
        <mxCell id="H4-Wv3msvxt6lHc-jZ4H-20" value="pelicula_id [FK]" style="text;strokeColor=none;fillColor=none;spacingLeft=4;spacingRight=4;overflow=hidden;rotatable=0;points=[[0,0.5],[1,0.5]];portConstraint=eastwest;fontSize=12;whiteSpace=wrap;html=1;" vertex="1" parent="H4-Wv3msvxt6lHc-jZ4H-18">
          <mxGeometry y="56" width="160" height="30" as="geometry" />
        </mxCell>
        <mxCell id="H4-Wv3msvxt6lHc-jZ4H-21" value="peliculas" style="swimlane;fontStyle=0;childLayout=stackLayout;horizontal=1;startSize=26;horizontalStack=0;resizeParent=1;resizeParentMax=0;resizeLast=0;collapsible=1;marginBottom=0;align=center;fontSize=14;" vertex="1" parent="1">
          <mxGeometry x="730" y="20" width="160" height="116" as="geometry" />
        </mxCell>
        <mxCell id="H4-Wv3msvxt6lHc-jZ4H-22" value="pelicula_id [PK]" style="text;strokeColor=none;fillColor=none;spacingLeft=4;spacingRight=4;overflow=hidden;rotatable=0;points=[[0,0.5],[1,0.5]];portConstraint=eastwest;fontSize=12;whiteSpace=wrap;html=1;" vertex="1" parent="H4-Wv3msvxt6lHc-jZ4H-21">
          <mxGeometry y="26" width="160" height="30" as="geometry" />
        </mxCell>
        <mxCell id="H4-Wv3msvxt6lHc-jZ4H-23" value="nombre" style="text;strokeColor=none;fillColor=none;spacingLeft=4;spacingRight=4;overflow=hidden;rotatable=0;points=[[0,0.5],[1,0.5]];portConstraint=eastwest;fontSize=12;whiteSpace=wrap;html=1;" vertex="1" parent="H4-Wv3msvxt6lHc-jZ4H-21">
          <mxGeometry y="56" width="160" height="30" as="geometry" />
        </mxCell>
        <mxCell id="H4-Wv3msvxt6lHc-jZ4H-24" value="genero" style="text;strokeColor=none;fillColor=none;spacingLeft=4;spacingRight=4;overflow=hidden;rotatable=0;points=[[0,0.5],[1,0.5]];portConstraint=eastwest;fontSize=12;whiteSpace=wrap;html=1;" vertex="1" parent="H4-Wv3msvxt6lHc-jZ4H-21">
          <mxGeometry y="86" width="160" height="30" as="geometry" />
        </mxCell>
        <mxCell id="H4-Wv3msvxt6lHc-jZ4H-25" value="" style="endArrow=none;html=1;rounded=0;exitX=1;exitY=0.5;exitDx=0;exitDy=0;entryX=0;entryY=0.5;entryDx=0;entryDy=0;" edge="1" parent="1" source="H4-Wv3msvxt6lHc-jZ4H-16" target="H4-Wv3msvxt6lHc-jZ4H-19">
          <mxGeometry relative="1" as="geometry">
            <mxPoint x="260" y="200" as="sourcePoint" />
            <mxPoint x="420" y="200" as="targetPoint" />
          </mxGeometry>
        </mxCell>
        <mxCell id="H4-Wv3msvxt6lHc-jZ4H-26" value="N" style="resizable=0;html=1;whiteSpace=wrap;align=right;verticalAlign=bottom;" connectable="0" vertex="1" parent="H4-Wv3msvxt6lHc-jZ4H-25">
          <mxGeometry x="1" relative="1" as="geometry" />
        </mxCell>
        <mxCell id="H4-Wv3msvxt6lHc-jZ4H-27" value="" style="endArrow=none;html=1;rounded=0;exitX=0;exitY=0.5;exitDx=0;exitDy=0;entryX=1;entryY=0.5;entryDx=0;entryDy=0;" edge="1" parent="1" source="H4-Wv3msvxt6lHc-jZ4H-23" target="H4-Wv3msvxt6lHc-jZ4H-19">
          <mxGeometry relative="1" as="geometry">
            <mxPoint x="540" y="220" as="sourcePoint" />
            <mxPoint x="735" y="220" as="targetPoint" />
          </mxGeometry>
        </mxCell>
        <mxCell id="H4-Wv3msvxt6lHc-jZ4H-28" value="N" style="resizable=0;html=1;whiteSpace=wrap;align=right;verticalAlign=bottom;" connectable="0" vertex="1" parent="H4-Wv3msvxt6lHc-jZ4H-27">
          <mxGeometry x="1" relative="1" as="geometry" />
        </mxCell>
      </root>
    </mxGraphModel>
  </diagram>
</mxfile>
